<?xml version="1.0" encoding="UTF-8"?>
<svg id="Layer_1" data-name="Layer 1" xmlns="http://www.w3.org/2000/svg" viewBox="0 0 76.55 76.55">
  <defs>
    <style>
      .cls-1 {
        fill: none;
        stroke: #fff;
        stroke-miterlimit: 10;
        stroke-width: 3px;
      }
    </style>
  </defs>
  <path class="cls-1" d="M75.8,38.27c0,20.72-16.8,37.52-37.52,37.52-8.69,0-15.41-1.47-17.88-8.91-.45-1.35-1.12-6.03,2.27-8.99,5.38-4.69,3.42-12.17,1.38-15.02-3.3-4.6-7.78-4-11.85-1.35-5.7,3.72-11.45,2.54-11.45-3.26C.75,17.55,17.55.75,38.27.75s37.52,16.8,37.52,37.52Z"/>
  <circle class="cls-1" cx="18.69" cy="24.89" r="6.19"/>
  <circle class="cls-1" cx="37.42" cy="14.27" r="6.19"/>
  <circle class="cls-1" cx="57.81" cy="24.89" r="6.19"/>
  <circle class="cls-1" cx="57.81" cy="47.02" r="6.19"/>
  <circle class="cls-1" cx="38.27" cy="57.47" r="6.19"/>
</svg>