<?xml version="1.0" encoding="UTF-8"?>
<svg id="Layer_1" data-name="Layer 1" xmlns="http://www.w3.org/2000/svg" viewBox="0 0 355.1 405.03">
  <defs>
    <style>
      .cls-1 {
        fill: none;
        stroke: #fff;
        stroke-linecap: round;
        stroke-linejoin: round;
        stroke-width: 16px;
      }
    </style>
  </defs>
  <polyline class="cls-1" points="213.19 247.43 177.55 247.43 141.91 247.43"/>
  <path class="cls-1" d="M107.96,338.1c11.6,17.42,31.58,29.55,69.59,29.55s57.84-12.49,69.59-29.55"/>
  <g>
    <path class="cls-1" d="M119.68,60.92S96.49,15.48,68.21,2.3c-3.52-1.64-7.64-.71-10.13,2.27-18.07,21.65-.28,98.65,26.4,115.12,24.71,3.5,35.2-58.78,35.2-58.78Z"/>
    <path class="cls-1" d="M235.42,60.92s22.47-44.04,50.16-57.98c4.41-2.22,9.86-.86,12.64,3.22,16.05,23.59-1.53,97.44-27.6,113.54-24.71,3.5-35.2-58.78-35.2-58.78Z"/>
  </g>
  <path class="cls-1" d="M70.42,104.55s-33.14,31.59-19.69,86.97c13.45,55.38-56.97,170.9-48.54,190.68,12.4,29.08,74.36,39.97,105.76-44.1,26.18-70.11,57.09-151.1,66.64-176.07,1.06-2.78,4.98-2.81,6.08-.04,10.4,26.3,38.71,101.76,66.47,176.1,31.4,84.07,93.36,73.19,105.76,44.1,8.43-19.78-61.99-135.3-48.54-190.68,13.45-55.38-19.69-86.97-19.69-86.97"/>
  <path class="cls-1" d="M119.68,60.92h0c33.91-26.85,81.83-26.85,115.74,0h0"/>
</svg>