<?xml version="1.0" encoding="UTF-8"?>
<svg id="Layer_1" data-name="Layer 1" xmlns="http://www.w3.org/2000/svg" viewBox="0 0 1178.1 1178.1">
  <defs>
    <style>
      .cls-1 {
        fill: #fff;
      }
    </style>
  </defs>
  <path class="cls-1" d="M1112.2,391.78l47.45-47.45c98.85-98.85-227.03-424.73-325.88-325.88l-100.62,100.62h0S175.11,677.12,175.11,677.12c-27.46,27.46-47.93,61.1-59.69,98.1l-62.67,197.11L1.68,1132.97c-8.5,26.75,16.7,51.95,43.45,43.45l160.64-51.07,197.12-62.67c37.01-11.76,70.65-32.24,98.11-59.69l611.21-611.21h0ZM187.15,1086.13c-11.16-19.21-24.97-37.3-41.43-53.76-16.45-16.45-34.55-30.26-53.76-41.43l77.45-243.61c57.65,25.58,109.68,61.36,154.83,106.51,45.16,45.16,80.94,97.18,106.52,154.84l-243.62,77.45ZM391.85,864.47c-11.6-14.13-23.99-27.84-37.18-41.03-13.2-13.2-26.9-25.58-41.03-37.18L856.99,242.9l78.21,78.21L391.85,864.47ZM763.57,149.49l63,63L279.04,760.03c-25.52-17.81-52.19-33.24-79.71-46.29L763.57,149.49ZM418.08,899.07L965.61,351.53l63,63L464.36,978.79c-13.04-27.53-28.47-54.2-46.29-79.72Z"/>
</svg>