<?xml version="1.0" encoding="UTF-8"?>
<svg id="Layer_1" data-name="Layer 1" xmlns="http://www.w3.org/2000/svg" viewBox="0 0 85.2 68.92">
  <defs>
    <style>
      .cls-1 {
        fill: none;
        stroke: #fff;
        stroke-linecap: round;
        stroke-linejoin: round;
        stroke-width: 3px;
      }
    </style>
  </defs>
  <path class="cls-1" d="M55.95.84c-1.15-.32-2.37.22-2.88,1.3-1.44,3.06-6.08,5.3-10.47,5.3s-9.03-2.24-10.47-5.3c-.51-1.08-1.73-1.61-2.88-1.3L.75,8.71l4.53,19.65,11.87-1.37v41.17h50.9V26.99l11.87,1.37,4.53-19.65L55.95.84Z"/>
  <polygon class="cls-1" points="42.6 20.49 46.2 31.55 57.83 31.55 48.42 38.39 52.01 49.45 42.6 42.61 33.19 49.45 36.79 38.39 27.37 31.55 39.01 31.55 42.6 20.49"/>
</svg>