<?xml version="1.0" encoding="UTF-8"?>
<svg id="Layer_1" xmlns="http://www.w3.org/2000/svg" version="1.1" viewBox="0 0 70.8 80.7">
  <!-- Generator: Adobe Illustrator 29.0.1, SVG Export Plug-In . SVG Version: 2.1.0 Build 192)  -->
  <defs>
    <style>
      .st0 {
        fill: #fff;
      }
    </style>
  </defs>
  <path class="st0" d="M39.8,49.4c.3.8-.3,1.3-1,1.9-3.3,2.7-6.6,5.4-9.9,8.1-3.8,3.2-7.6,6.4-11.5,9.5-3.7,3.1-7.4,6.2-11.1,9.2-.7.6-1.3,1.2-2,1.8-1.2.9-2.6.9-3.6,0-1-.9-1-2.5-.1-3.6,1.5-1.8,3.1-3.7,4.6-5.5,2.9-3.5,5.9-7,8.8-10.5,2.5-3,5.1-6.1,7.6-9.1,2.8-3.3,5.5-6.7,8.3-10,.1-.1.3-.2.4-.2,1.6,0,3.1.1,4.7.2.2,0,.5.2.7.4,1.1,1.1,2.2,2.1,3.3,3.2.2.2.4.6.4.9.1,1.2.2,2.3.3,3.7h0Z"/>
  <path class="st0" d="M41.2,9.9c8.3,0,12.5,7.6,11.3,13.3-.7,3.4-2.6,5.9-5.7,7.5-3,1.6-6.2,2.1-9.4.4-.3,1.7-.7,3.2-1,4.8-.3,1.3-.2,1.3-1.6,1.4-1.3,0-2.6.1-4,.2.2-1.3.5-2.5.7-3.7.4-1.9.8-3.7,1.1-5.6,0-.3-.2-.7-.3-1-2.4-4-2.5-7.9-.1-11.9.5-.9,1.3-1.7,2-2.5,2.3-2.5,2.4-5,.3-7.7-.4-.5-.8-1-1-1.6-.5-1.1,0-2.3,1-3,1.1-.7,2.4-.6,3.2.4,2.2,2.3,3.5,5,3.5,8.3v.8h0ZM47.6,21c0-3.2-2.6-5.8-5.9-5.8-3.2,0-6,2.7-5.9,5.8,0,3.3,2.6,5.9,5.9,5.9,3.3,0,5.9-2.6,5.9-5.9Z"/>
  <path class="st0" d="M43.5,49.6c0-1.6-.2-3.2-.2-4.8,0-.1.3-.4.5-.4,1.9-.4,3.7-.8,5.5-1.1-.2-1.4-.5-2.7-.6-4.1-.1-2.6.9-4.9,2.4-7,3.2-4.7,11.3-6,16.3-1.2,2.7,2.6,3.8,5.8,3.3,9.6-.5,4.5-4.3,8.7-9.5,9.3-2.6.3-5.1-.2-7.3-1.6-.6-.4-1.2-.5-1.9-.4-2.5.5-5,1-7.6,1.5-.3,0-.6,0-.9.2h0ZM59.7,45c3.3,0,6-2.7,5.9-6,0-3.2-2.6-5.7-5.9-5.8-3.2,0-5.9,2.6-5.9,5.8,0,3.3,2.6,6,5.9,6h0Z"/>
</svg>