<?xml version="1.0" encoding="UTF-8"?>
<svg id="Layer_1" data-name="Layer 1" xmlns="http://www.w3.org/2000/svg" viewBox="0 0 94.01 52.54">
  <defs>
    <style>
      .cls-1 {
        fill: none;
        stroke: #fff;
        stroke-linecap: round;
        stroke-linejoin: round;
        stroke-width: 3px;
      }
    </style>
  </defs>
  <path class="cls-1" d="M26.27,24.9v-7.63c0-2.48.58-4.92,1.68-7.13l2.73-5.45c1.21-2.42,3.68-3.94,6.38-3.94h0c1.29,0,2.56.35,3.67,1.02l1.36.82c3.03,1.82,6.82,1.82,9.85,0l1.36-.82c1.11-.66,2.38-1.02,3.67-1.02h0c2.7,0,5.17,1.53,6.38,3.94l2.73,5.45c1.11,2.21,1.68,4.66,1.68,7.13v7.63"/>
  <path class="cls-1" d="M26.27,24.9c-15.14-1.77-25.52-3.88-25.52,2.39,0,8.36,12.89,24.5,46.26,24.5s46.26-16.14,46.26-24.5c0-6.27-10.39-4.16-25.52-2.39"/>
  <path class="cls-1" d="M67.74,23.08c0,4.4-9.28,7.98-20.74,7.98s-20.74-3.57-20.74-7.98"/>
</svg>