<?xml version="1.0" encoding="UTF-8"?>
<svg id="Layer_1" data-name="Layer 1" xmlns="http://www.w3.org/2000/svg" viewBox="0 0 194.28 186.98">
  <defs>
    <style>
      .cls-1 {
        fill: none;
        stroke: #fff;
        stroke-linecap: round;
        stroke-linejoin: round;
        stroke-width: 7px;
      }
    </style>
  </defs>
  <g>
    <polygon class="cls-1" points="30.79 1.5 2.8 49.97 58.77 49.97 30.79 1.5 2.8 49.97 58.77 49.97 30.79 1.5"/>
    <polygon class="cls-1" points="163.49 1.5 135.51 49.97 191.48 49.97 163.49 1.5 135.51 49.97 191.48 49.97 163.49 1.5"/>
  </g>
  <polyline class="cls-1" points="112.03 103.3 97.14 65.07 82.25 103.3"/>
  <g>
    <path class="cls-1" d="M192.78,111.81l-.1.04-42.6,16.35v16.17h-35v-13.22h-35.91v13.22h-35v-16.17L1.5,111.81l14.62,27.63c9.62,18.14,25.26,32.37,44.23,40.22,5.35,2.22,10.88,3.88,16.53,5,1.59.33,3.19.59,4.8.81"/>
    <path class="cls-1" d="M112.59,184.3c7.95-1.1,16.47-2.64,21.27-4.64,9.5-3.92,18.14-9.46,25.62-16.25,7.48-6.81,13.79-14.9,18.59-23.97l14.62-27.59.02-.04"/>
    <polyline class="cls-1" points="112.59 184.3 112.59 168.52 81.68 168.52 81.68 185.48"/>
  </g>
</svg>