<?xml version="1.0" encoding="UTF-8"?>
<svg id="Layer_1" data-name="Layer 1" xmlns="http://www.w3.org/2000/svg" viewBox="0 0 44.77 47.94">
  <defs>
    <style>
      .cls-1 {
        fill: #fff;
      }
    </style>
  </defs>
  <path class="cls-1" d="M44.06,39.1l-6.39-4.92h.37c1.55,0,2.8-1.26,2.8-2.8v-5.32c0-1.87-1.11-3.55-2.83-4.27l-14.32-6.03c-2.12-.89-3.49-2.96-3.49-5.26V1.14l-.37-.2c-1.76-.98-3.44-1.19-4.99-.63-2.23.81-3.49,3.02-3.96,3.98H2.82v11.09C.09,17.51,0,23.95,0,24.71c0,.39.32.71.71.71h0c.39,0,.71-.32.71-.71,0-1.91.45-7.14,2.47-8.34l.35-.21V5.72h7.6l.18-.46s1.09-2.8,3.31-3.61c1.04-.38,2.19-.26,3.44.34v6.04h-3.97c-.39,0-.71.32-.71.71s.32.71.71.71h3.97v1.03c0,.23.02.46.04.69-.06,0-.12.02-.18.05l-4.11,1.75c-.36.15-.53.57-.38.94.12.27.38.43.66.43.09,0,.19-.02.28-.06l4.01-1.71c.29.96.78,1.83,1.43,2.58l-3.31,2.91c-.3.26-.33.71-.06,1.01.14.16.34.24.54.24.17,0,.34-.06.47-.18l3.36-2.95s.03-.04.05-.06c.48.37,1.01.68,1.58.92l.94.39-2.02,3.82c-.18.35-.05.78.3.96.11.06.22.08.33.08.26,0,.5-.14.63-.38l2.07-3.93,2.34.99-.74,3.95c-.07.39.18.76.57.83.04,0,.09.01.13.01.34,0,.64-.24.7-.58l.68-3.64,8.37,3.53c1.19.5,1.96,1.66,1.96,2.95v2.11l-36.3-.18c-.81,0-1.61.32-2.2.9-.59.59-.91,1.37-.91,2.2,0,1.21.7,2.26,1.72,2.77-.23,1.57.32,2.92.77,3.71-1.14,1.1-1.86,2.64-1.86,4.34,0,3.33,2.71,6.03,6.03,6.03s6.03-2.71,6.03-6.03-2.71-6.03-6.03-6.03c-1.1,0-2.13.3-3.02.82-.3-.59-.63-1.49-.52-2.52h32.55c.02.18.12.35.27.47l2.21,1.7-2.35,2.82c-1-1.95-3.03-3.29-5.37-3.29-2.05,0-3.86,1.03-4.95,2.59,0-.29-.17-.55-.45-.66-.24-.09-5.97-2.27-11.17.01-.36.16-.53.58-.37.94.16.36.58.53.94.37,4.65-2.04,10.02,0,10.08.01.09.03.17.05.26.05.12,0,.23-.04.33-.09-.45.84-.7,1.8-.7,2.81,0,3.33,2.71,6.03,6.03,6.03,2.75,0,5.08-1.86,5.8-4.38l2.62,2.07c.33.26.72.39,1.11.39.53,0,1.05-.23,1.4-.66l3-3.69c.31-.38.45-.86.39-1.35-.06-.49-.3-.92-.69-1.21ZM11.27,41.91c0,2.54-2.06,4.6-4.6,4.6s-4.6-2.06-4.6-4.6c0-1.32.56-2.51,1.46-3.35,0,0,0,0,.01,0,.16,0,.32-.05.45-.16.12-.1.2-.24.24-.38.71-.45,1.55-.71,2.44-.71,2.54,0,4.6,2.06,4.6,4.6ZM1.92,29.9c.31-.31.73-.48,1.17-.48h0l36.31.18v1.78c0,.76-.62,1.37-1.37,1.37H3.1c-.1,0-.21-.01-.31-.03-.02,0-.04-.02-.05-.02-.03,0-.05,0-.08-.01-.71-.19-1.23-.84-1.23-1.6,0-.45.17-.87.49-1.18ZM30.43,46.51c-2.54,0-4.6-2.06-4.6-4.6s2.06-4.6,4.6-4.6,4.6,2.06,4.6,4.6-2.06,4.6-4.6,4.6ZM43.26,40.76l-3,3.69c-.13.16-.36.18-.52.06l-2.91-2.3c-.11-.09-.24-.13-.37-.15,0-.05,0-.1,0-.15,0-.4-.04-.79-.11-1.16l2.94-3.52,3.91,3.01c.11.08.14.19.14.25,0,.06,0,.17-.08.28Z"/>
</svg>