<?xml version="1.0" encoding="UTF-8"?>
<svg id="Layer_1" data-name="Layer 1" xmlns="http://www.w3.org/2000/svg" viewBox="0 0 84.75 36.73">
  <defs>
    <style>
      .cls-1 {
        fill: #fff;
      }
    </style>
  </defs>
  <path class="cls-1" d="M84.19,23.24c-.04-.29-.1-.56-.2-.83-.6-1.54-3.17-5.52-13.62-5.52s-13.43-2.04-16.23-4.2l-.12-.09C52.5,11.43,38.02.86,34.12.03c-.48-.1-.99.05-1.32.41-.34.36-.68.82-1.1,1.41-1.98,2.73-5.29,7.29-12.64,7.29-8.84,0-12.81-4.14-12.84-4.18-.32-.36-.8-.52-1.29-.44-.48.08-.88.4-1.06.85-.66,1.57-6.13,15.11-2.82,20.71l-.04,9.22c0,.38.15.74.41,1,.27.27.63.42,1,.42h19.99c.78,0,1.41-.63,1.41-1.41v-1.09c7.44.5,14.9,1.15,22.19,1.95,3.38.37,6.73.55,9.97.55,13.36,0,22.18-3.08,26.25-4.92,1.72-.78,2.72-2.58,2.48-4.47,0,0-.4-3.11-.53-4.09ZM5.78,8.25c2.15,1.51,6.45,3.72,13.28,3.72,8.79,0,12.93-5.71,14.93-8.45.12-.16.23-.31.33-.46.87.37,2.12,1.06,3.57,1.94l-3.12,5.03c-.25.4-.12.92.27,1.17l.96.6c.4.25.92.12,1.17-.27l3.11-5.02c1.12.71,2.28,1.48,3.45,2.26l-3.06,4.95c-.25.4-.12.92.27,1.17l.96.6c.4.25.92.12,1.17-.27l3-4.84c1.2.83,2.35,1.64,3.37,2.38l-2.88,4.65c-.25.4-.12.92.27,1.17l.96.6c.4.25.92.12,1.17-.27l2.76-4.46c.19.15.39.29.56.42l.12.09c3.05,2.36,6.21,4.79,17.96,4.79,6.75,0,9.41,1.77,10.43,2.91-3.79,1.77-16.06,6.59-33.94,4.64-22.23-2.42-39.72-2.87-43.57-2.94-1.44-3.15.51-10.76,2.49-16.07ZM81.08,29.23c-3.86,1.74-12.25,4.67-25.08,4.67-3.14,0-6.39-.18-9.66-.54-7.83-.85-15.84-1.55-23.82-2.06-.03,0-.06,0-.09,0-.36,0-.7.14-.97.38-.29.27-.45.64-.45,1.03v1.19H3.85l.03-6.73c4.86.11,21.67.62,42.67,2.91,18.09,1.97,30.56-2.63,35.07-4.7l.3,2.32c.08.65-.25,1.27-.84,1.53Z"/>
</svg>